<svg width="176" height="62" viewBox="0 0 176 62" fill="none" xmlns="http://www.w3.org/2000/svg">
<path d="M37.6568 43.6934H12.9918C13.4131 45.922 14.5924 47.9358 16.3292 49.3923C18.1153 50.8394 20.3602 51.598 22.657 51.5307C24.5307 51.5921 26.3831 51.1174 27.9969 50.1621C28.4077 49.9007 28.8052 49.6188 29.1877 49.3174C30.0607 48.6251 31.1349 48.2357 32.2483 48.2077C33.3617 48.1797 34.454 48.5148 35.3606 49.1624L35.4888 49.2533C36.1899 49.7528 36.7544 50.4206 37.1305 51.1955C37.5066 51.9704 37.6822 52.8274 37.6413 53.6879C37.6004 54.5485 37.3442 55.3849 36.8962 56.1205C36.4483 56.856 35.8229 57.4672 35.0776 57.8977C34.4101 58.272 33.7213 58.6195 33.0004 58.9402C29.9338 60.3108 26.6133 61.0194 23.255 61.0198C20.1837 61.0391 17.1316 60.5329 14.2306 59.5229C11.5215 58.5939 9.02133 57.1408 6.87223 55.2461C4.78956 53.3715 3.12005 51.0829 1.9702 48.5262C0.744823 45.7778 0.132544 42.795 0.175989 39.7855C0.13315 36.7778 0.74542 33.7969 1.9702 31.0501C3.12729 28.4997 4.80219 26.2184 6.88825 24.3516C9.03734 22.4569 11.5376 21.0038 14.2466 20.0748C17.147 19.0623 20.1995 18.556 23.2711 18.5779C26.0363 18.5399 28.7818 19.0486 31.3503 20.0748C33.6979 21.0184 35.8025 22.4803 37.5072 24.3516C39.2416 26.2996 40.5656 28.5779 41.4 31.0501C42.2356 33.5094 42.6912 36.0819 42.751 38.6789C42.7083 39.2135 42.217 43.4208 37.6568 43.7202V43.6934ZM29.9406 35.2093C29.9846 34.2087 29.8171 33.21 29.449 32.2786C29.0809 31.3472 28.5206 30.5042 27.8046 29.8045C27.0551 29.0541 26.1588 28.4669 25.1719 28.0796C24.185 27.6923 23.1288 27.5133 22.0696 27.5538C20.7922 27.5328 19.5228 27.7597 18.3317 28.2221C17.314 28.6245 16.3743 29.2016 15.5549 29.9275C14.8001 30.6014 14.1897 31.4216 13.7607 32.3385C13.323 33.2373 13.0619 34.2119 12.9918 35.2093H29.9406Z" fill="white"/>
<path d="M46.3447 6.60294C46.3447 4.90153 47.0198 3.2698 48.2216 2.06671C49.4233 0.863629 51.0531 0.187744 52.7526 0.187744V0.187744C54.4521 0.187744 56.082 0.863629 57.2837 2.06671C58.4854 3.2698 59.1605 4.90153 59.1605 6.60294V54.4496C59.1605 56.1511 58.4854 57.7828 57.2837 58.9859C56.082 60.1889 54.4521 60.8648 52.7526 60.8648C51.0531 60.8648 49.4233 60.1889 48.2216 58.9859C47.0198 57.7828 46.3447 56.1511 46.3447 54.4496V6.60294Z" fill="white"/>
<path fill-rule="evenodd" clip-rule="evenodd" d="M71.9813 5.36792C73.2001 5.36792 74.3915 5.72974 75.4049 6.40763C76.4183 7.08552 77.2081 8.04903 77.6745 9.17632C78.1409 10.3036 78.2629 11.544 78.0252 12.7408C77.7874 13.9375 77.2005 15.0368 76.3387 15.8995C75.4769 16.7623 74.3789 17.3499 73.1835 17.5879C71.9882 17.826 70.7491 17.7038 69.6231 17.2369C68.4971 16.7699 67.5347 15.9792 66.8576 14.9647C66.1805 13.9501 65.8191 12.7574 65.8191 11.5372C65.8191 9.90101 66.4683 8.33183 67.624 7.17486C68.7796 6.0179 70.347 5.36792 71.9813 5.36792Z" fill="white"/>
<path fill-rule="evenodd" clip-rule="evenodd" d="M91.0609 5.19702C92.2799 5.19702 93.4716 5.55898 94.485 6.23711C95.4985 6.91523 96.2884 7.87906 96.7546 9.00666C97.2209 10.1343 97.3426 11.375 97.1044 12.5718C96.8662 13.7687 96.2787 14.868 95.4164 15.7305C94.5541 16.5931 93.4556 17.1803 92.2598 17.4177C91.0641 17.6551 89.8249 17.5322 88.699 17.0644C87.5731 16.5967 86.6111 15.8051 85.9346 14.7899C85.2581 13.7746 84.8976 12.5814 84.8987 11.361C84.9001 9.72569 85.55 8.15788 86.7054 7.00207C87.8609 5.84626 89.4275 5.19702 91.0609 5.19702Z" fill="white"/>
<path d="M65.75 26.9765C65.75 25.2751 66.4251 23.6433 67.6268 22.4402C68.8285 21.2372 70.4584 20.5613 72.1579 20.5613C73.8574 20.5613 75.4872 21.2372 76.6889 22.4402C77.8906 23.6433 78.5658 25.2751 78.5658 26.9765V54.5779C78.5658 56.2793 77.8906 57.911 76.6889 59.1141C75.4872 60.3172 73.8574 60.9931 72.1579 60.9931C70.4584 60.9931 68.8285 60.3172 67.6268 59.1141C66.4251 57.911 65.75 56.2793 65.75 54.5779V26.9765Z" fill="white"/>
<path d="M84.4448 27.0514C84.4448 25.35 85.1199 23.7183 86.3217 22.5152C87.5234 21.3121 89.1532 20.6362 90.8527 20.6362C92.5522 20.6362 94.182 21.3121 95.3838 22.5152C96.5855 23.7183 97.2606 25.35 97.2606 27.0514V54.6528C97.2606 56.3542 96.5855 57.986 95.3838 59.1891C94.182 60.3921 92.5522 61.068 90.8527 61.068C89.1532 61.068 87.5234 60.3921 86.3217 59.1891C85.1199 57.986 84.4448 56.3542 84.4448 54.6528V27.0514Z" fill="white"/>
<path d="M167.197 61.0145C166.129 61.0145 165.643 61.0145 164.874 61.0145C162.891 61.0483 160.913 60.7962 159.001 60.266C157.269 59.8111 155.638 59.033 154.195 57.9726C152.826 57.0002 151.724 55.6985 150.991 54.1876C150.176 52.4147 149.781 50.4771 149.837 48.5262V25.2016V6.15916C149.837 4.59953 150.456 3.10378 151.558 2.00095C152.659 0.898126 154.153 0.278564 155.711 0.278564H156.635C158.193 0.278564 159.687 0.898126 160.788 2.00095C161.89 3.10378 162.509 4.59953 162.509 6.15916V14.6219H170.588C171.987 14.6261 173.328 15.1856 174.316 16.1777C175.304 17.1698 175.859 18.5135 175.859 19.9144C175.859 21.3181 175.302 22.6643 174.31 23.6568C173.319 24.6494 171.974 25.207 170.572 25.207H162.509V43.1374C162.501 44.1484 162.555 45.1588 162.669 46.1633C162.757 46.9997 163.019 47.8083 163.438 48.5369C163.875 49.2297 164.517 49.7682 165.275 50.0765C165.907 50.3369 166.569 50.5165 167.245 50.6111H170.044C171.423 50.6111 172.746 51.1597 173.721 52.1362C174.697 53.1127 175.245 54.4372 175.245 55.8181C175.245 57.1991 174.697 58.5236 173.721 59.5001C172.746 60.4766 171.423 61.0252 170.044 61.0252H167.197V61.0145Z" fill="white"/>
<path fill-rule="evenodd" clip-rule="evenodd" d="M123.528 15.0442C128.08 15.0431 132.531 16.3937 136.316 18.9251C140.102 21.4565 143.052 25.055 144.795 29.2655C146.538 33.4759 146.994 38.1092 146.106 42.5793C145.218 47.0493 143.026 51.1554 139.807 54.3781C136.588 57.6008 132.487 59.7953 128.022 60.6842C123.557 61.5731 118.929 61.1164 114.723 59.3718C110.517 57.6272 106.923 54.6731 104.395 50.8831C101.866 47.0932 100.517 42.6377 100.518 38.0801C100.522 31.9719 102.948 26.1151 107.262 21.7959C111.576 17.4768 117.426 15.0484 123.528 15.0442ZM113.996 47.2324C111.505 44.7048 110.111 41.2944 110.119 37.7433C110.158 35.1476 110.963 32.6214 112.432 30.4821C113.9 28.3429 115.968 26.686 118.375 25.7198C120.782 24.7537 123.42 24.5213 125.958 25.0519C128.496 25.5825 130.821 26.8524 132.641 28.7021C134.46 30.5517 135.693 32.8985 136.184 35.4475C136.675 37.9965 136.403 40.6339 135.401 43.0283C134.399 45.4227 132.713 47.4672 130.554 48.9048C128.394 50.3424 125.859 51.1091 123.266 51.1083C121.874 51.1104 120.491 50.8865 119.17 50.4454C117.004 51.91 114.349 52.4612 111.78 51.9797C111.716 51.9676 111.657 51.9341 111.615 51.8845C111.572 51.835 111.547 51.7724 111.545 51.7071C111.54 51.6424 111.557 51.578 111.591 51.5232C111.626 51.4684 111.677 51.4261 111.737 51.4023C114.167 50.5416 114.108 48.1038 114.007 47.2378L113.996 47.2324Z" fill="white"/>
</svg>
