<svg width="102" height="35" viewBox="0 0 102 35" fill="none" xmlns="http://www.w3.org/2000/svg">
<path d="M21.5527 24.9874H7.37031C7.61258 26.2674 8.29069 27.4239 9.28934 28.2605C10.3164 29.0916 11.6072 29.5273 12.9278 29.4886C14.0052 29.5239 15.0703 29.2513 15.9983 28.7026C16.2345 28.5525 16.463 28.3906 16.683 28.2175C17.185 27.8199 17.8026 27.5962 18.4428 27.5801C19.083 27.5641 19.7111 27.7565 20.2324 28.1284L20.3061 28.1806C20.7092 28.4675 21.0338 28.8511 21.2501 29.2961C21.4663 29.7412 21.5673 30.2334 21.5438 30.7277C21.5203 31.2219 21.373 31.7023 21.1154 32.1248C20.8578 32.5472 20.4982 32.8982 20.0697 33.1455C19.6859 33.3605 19.2898 33.56 18.8753 33.7443C17.112 34.5315 15.2027 34.9384 13.2717 34.9387C11.5057 34.9498 9.75074 34.659 8.08265 34.079C6.52493 33.5454 5.08731 32.7108 3.85158 31.6226C2.65405 30.5459 1.69408 29.2314 1.03291 27.763C0.328322 26.1845 -0.0237386 24.4713 0.00124222 22.7429C-0.02339 21.0154 0.328665 19.3033 1.03291 17.7258C1.69824 16.2609 2.66131 14.9507 3.86079 13.8785C5.09652 12.7903 6.53414 11.9557 8.09186 11.4221C9.75957 10.8406 11.5148 10.5498 13.2809 10.5624C14.8709 10.5406 16.4496 10.8327 17.9265 11.4221C19.2764 11.9641 20.4865 12.8038 21.4667 13.8785C22.464 14.9973 23.2253 16.3059 23.7051 17.7258C24.1855 19.1382 24.4475 20.6158 24.4819 22.1073C24.4573 22.4143 24.1748 24.8308 21.5527 25.0027V24.9874ZM17.1159 20.1146C17.1412 19.5399 17.0449 18.9663 16.8332 18.4313C16.6216 17.8964 16.2994 17.4122 15.8877 17.0104C15.4567 16.5794 14.9413 16.2421 14.3739 16.0196C13.8064 15.7972 13.1991 15.6944 12.5901 15.7177C11.8556 15.7056 11.1257 15.8359 10.4408 16.1015C9.85561 16.3326 9.3153 16.6641 8.84412 17.081C8.4101 17.468 8.05913 17.9391 7.81245 18.4657C7.56075 18.9819 7.41064 19.5417 7.37031 20.1146H17.1159Z" fill="#5C7190"/>
<path d="M26.5483 3.68453C26.5483 2.70733 26.9365 1.77016 27.6275 1.07917C28.3185 0.388191 29.2557 0 30.2329 0V0C31.2101 0 32.1472 0.388191 32.8382 1.07917C33.5292 1.77016 33.9174 2.70733 33.9174 3.68453V31.165C33.9174 32.1422 33.5292 33.0794 32.8382 33.7704C32.1472 34.4613 31.2101 34.8495 30.2329 34.8495C29.2557 34.8495 28.3185 34.4613 27.6275 33.7704C26.9365 33.0794 26.5483 32.1422 26.5483 31.165V3.68453Z" fill="#5C7190"/>
<path fill-rule="evenodd" clip-rule="evenodd" d="M41.2894 2.97534C41.9902 2.97534 42.6752 3.18315 43.2579 3.57249C43.8406 3.96184 44.2948 4.51522 44.563 5.16268C44.8311 5.81013 44.9013 6.52257 44.7646 7.2099C44.6279 7.89723 44.2904 8.52858 43.7949 9.02412C43.2993 9.51966 42.668 9.85713 41.9806 9.99384C41.2933 10.1306 40.5809 10.0604 39.9334 9.79221C39.286 9.52403 38.7326 9.06987 38.3432 8.48718C37.9539 7.90449 37.7461 7.21943 37.7461 6.51863C37.7461 5.57889 38.1194 4.67764 38.7839 4.01315C39.4484 3.34865 40.3496 2.97534 41.2894 2.97534Z" fill="#5C7190"/>
<path fill-rule="evenodd" clip-rule="evenodd" d="M52.2601 2.87695C52.961 2.87695 53.6462 3.08484 54.229 3.47432C54.8117 3.8638 55.2659 4.41737 55.534 5.065C55.802 5.71263 55.872 6.42522 55.7351 7.11264C55.5981 7.80005 55.2603 8.4314 54.7645 8.92682C54.2686 9.42223 53.637 9.75946 52.9495 9.89583C52.2619 10.0322 51.5494 9.96159 50.902 9.69294C50.2546 9.42428 49.7014 8.96965 49.3125 8.38656C48.9235 7.80346 48.7162 7.1181 48.7168 6.41718C48.7176 5.47797 49.0913 4.57751 49.7557 3.91367C50.4201 3.24984 51.3209 2.87695 52.2601 2.87695Z" fill="#5C7190"/>
<path d="M37.7063 15.3859C37.7063 14.4088 38.0945 13.4716 38.7855 12.7806C39.4765 12.0896 40.4136 11.7014 41.3908 11.7014C42.368 11.7014 43.3052 12.0896 43.9962 12.7806C44.6872 13.4716 45.0754 14.4088 45.0754 15.3859V31.2387C45.0754 32.2159 44.6872 33.153 43.9962 33.844C43.3052 34.535 42.368 34.9232 41.3908 34.9232C40.4136 34.9232 39.4765 34.535 38.7855 33.844C38.0945 33.153 37.7063 32.2159 37.7063 31.2387V15.3859Z" fill="#5C7190"/>
<path d="M48.4558 15.4289C48.4558 14.4517 48.844 13.5145 49.535 12.8236C50.226 12.1326 51.1631 11.7444 52.1403 11.7444C53.1175 11.7444 54.0547 12.1326 54.7457 12.8236C55.4367 13.5145 55.8249 14.4517 55.8249 15.4289V31.2816C55.8249 32.2588 55.4367 33.196 54.7457 33.887C54.0547 34.578 53.1175 34.9662 52.1403 34.9662C51.1631 34.9662 50.226 34.578 49.535 33.887C48.844 33.196 48.4558 32.2588 48.4558 31.2816V15.4289Z" fill="#5C7190"/>
<path d="M96.0385 34.9356C95.4244 34.9356 95.145 34.9356 94.7029 34.9356C93.5623 34.955 92.4248 34.8102 91.3254 34.5057C90.3296 34.2444 89.392 33.7975 88.562 33.1885C87.7752 32.63 87.1416 31.8824 86.7197 31.0146C86.2511 29.9963 86.0241 28.8835 86.0565 27.763V14.3667V3.42973C86.0565 2.53397 86.4124 1.67489 87.0458 1.04149C87.6792 0.408088 88.5382 0.0522461 89.434 0.0522461H89.9652C90.861 0.0522461 91.72 0.408088 92.3534 1.04149C92.9868 1.67489 93.3427 2.53397 93.3427 3.42973V8.29025H97.9883C98.7929 8.29269 99.5637 8.61402 100.132 9.18382C100.7 9.75361 101.019 10.5254 101.019 11.33C101.019 12.1362 100.699 12.9093 100.128 13.4794C99.5584 14.0495 98.7852 14.3697 97.9791 14.3697H93.3427V24.668C93.3382 25.2486 93.369 25.829 93.4348 26.4059C93.4851 26.8862 93.6357 27.3507 93.8769 27.7691C94.1279 28.1671 94.4973 28.4763 94.9332 28.6534C95.2964 28.803 95.6771 28.9061 96.0662 28.9605H97.6751C98.4682 28.9605 99.2289 29.2756 99.7898 29.8364C100.351 30.3973 100.666 31.1579 100.666 31.9511C100.666 32.7443 100.351 33.5049 99.7898 34.0658C99.2289 34.6266 98.4682 34.9417 97.6751 34.9417H96.0385V34.9356Z" fill="#5C7190"/>
<path fill-rule="evenodd" clip-rule="evenodd" d="M70.9285 8.53272C73.5462 8.53211 76.1052 9.30781 78.2819 10.7617C80.4586 12.2156 82.1553 14.2824 83.1573 16.7006C84.1593 19.1189 84.4216 21.78 83.9111 24.3473C83.4006 26.9147 82.1401 29.273 80.2892 31.1239C78.4382 32.9748 76.08 34.2353 73.5126 34.7458C70.9453 35.2563 68.2842 34.994 65.8659 33.992C63.4477 32.99 61.3809 31.2933 59.927 29.1166C58.4731 26.9399 57.6974 24.3809 57.698 21.7633C57.7004 18.255 59.0952 14.8912 61.5758 12.4105C64.0565 9.92987 67.4203 8.53516 70.9285 8.53272ZM65.4478 27.0199C64.0152 25.5681 63.2141 23.6094 63.2187 21.5698C63.2411 20.079 63.7036 18.6281 64.5482 17.3994C65.3929 16.1707 66.5818 15.2191 67.9657 14.6642C69.3495 14.1093 70.8666 13.9758 72.3261 14.2806C73.7856 14.5853 75.1224 15.3147 76.1686 16.377C77.2148 17.4394 77.9236 18.7872 78.206 20.2512C78.4883 21.7152 78.3316 23.23 77.7556 24.6052C77.1795 25.9804 76.2098 27.1547 74.9684 27.9804C73.7269 28.8061 72.2691 29.2464 70.7781 29.2459C69.9777 29.2471 69.1823 29.1185 68.4231 28.8652C67.1776 29.7064 65.6508 30.023 64.1736 29.7464C64.1366 29.7395 64.1032 29.7202 64.0786 29.6918C64.0541 29.6633 64.0399 29.6274 64.0385 29.5898C64.0359 29.5527 64.0452 29.5157 64.0651 29.4842C64.085 29.4527 64.1144 29.4284 64.149 29.4148C65.5461 28.9205 65.5123 27.5203 65.4539 27.0229L65.4478 27.0199Z" fill="url(#paint0_linear_867_732)"/>
<defs>
<linearGradient id="paint0_linear_867_732" x1="57.6857" y1="21.7633" x2="84.1499" y2="21.7633" gradientUnits="userSpaceOnUse">
<stop stop-color="#1BBCB2"/>
<stop offset="1" stop-color="#198C9B"/>
</linearGradient>
</defs>
</svg>
